#tb 0: 1/48000
#media_type 0: audio
#codec_id 0: pcm_s16le
#sample_rate 0: 48000
#channel_layout 0: 3
0,          0,          0,      896,     3584, 0xdae789d5
0,        896,        896,      896,     3584, 0x168ed9b6
0,       1792,       1792,      896,     3584, 0x8920c8d5
0,       2688,       2688,      896,     3584, 0xaf0a3245
0,       3584,       3584,      896,     3584, 0x884ee935
0,       4480,       4480,      896,     3584, 0xe6a832ad
0,       5376,       5376,      896,     3584, 0x1fa12ea2
0,       6272,       6272,      896,     3584, 0xf119198c
0,       7168,       7168,      896,     3584, 0x0a6dbf72
0,       8064,       8064,      896,     3584, 0xd3467881
0,       8960,       8960,      896,     3584, 0x25d504ec
0,       9856,       9856,      896,     3584, 0x452730c9
0,      10752,      10752,      896,     3584, 0x42b92ff1
0,      11648,      11648,      896,     3584, 0x85c67bf3
0,      12544,      12544,      896,     3584, 0xab4d99e9
0,      13440,      13440,      896,     3584, 0xe5bfc4da
0,      14336,      14336,      896,     3584, 0x7a5210e9
0,      15232,      15232,      896,     3584, 0x5265fcd3
0,      16128,      16128,      896,     3584, 0x76531427
0,      17024,      17024,      896,     3584, 0xb2b8d7ab
0,      17920,      17920,      896,     3584, 0x05a453e8
0,      18816,      18816,      896,     3584, 0x742c45bb
0,      19712,      19712,      896,     3584, 0x57aaee3b
0,      20608,      20608,      896,     3584, 0x997bf703
0,      21504,      21504,      896,     3584, 0xe2d14b13
0,      22400,      22400,      896,     3584, 0xdafbdd2f
0,      23296,      23296,      896,     3584, 0x448cec3a
0,      24192,      24192,      896,     3584, 0xe6f6fb9c
0,      25088,      25088,      896,     3584, 0x0310276a
0,      25984,      25984,      896,     3584, 0x44bf04e9
0,      26880,      26880,      896,     3584, 0xe2105d33
0,      27776,      27776,      896,     3584, 0x08b7d5e0
